<?xml version="1.0" encoding="UTF-8"?>
<!DOCTYPE svg PUBLIC "-//W3C//DTD SVG 1.1//EN" "http://www.w3.org/Graphics/SVG/1.1/DTD/svg11.dtd">
<!-- Creator: CorelDRAW 2019 (64-Bit) -->
<svg xmlns="http://www.w3.org/2000/svg" xml:space="preserve" width="1.85153in" height="2.46848in" version="1.1" style="shape-rendering:geometricPrecision; text-rendering:geometricPrecision; image-rendering:optimizeQuality; fill-rule:evenodd; clip-rule:evenodd"
viewBox="0 0 1850.37 2466.94"
 xmlns:xlink="http://www.w3.org/1999/xlink">
 <defs>
  <style type="text/css">
   <![CDATA[
    .fil1 {fill:#231F20}
    .fil6 {fill:#231F20}
    .fil3 {fill:#35B994}
    .fil2 {fill:#FF6060}
    .fil0 {fill:white}
    .fil5 {fill:#FF6060;fill-rule:nonzero}
    .fil4 {fill:white;fill-rule:nonzero}
   ]]>
  </style>
 </defs>
 <g id="Layer_x0020_1">
  <metadata id="CorelCorpID_0Corel-Layer"/>
  <g id="_2614509586800">
   <g>
    <circle class="fil0" cx="689.64" cy="985.48" r="208.44"/>
    <circle class="fil0" cx="1157.56" cy="985.48" r="208.44"/>
    <path class="fil1" d="M457.21 1098.66c12.15,24.64 28.12,47.07 47.13,66.5l-84.46 63.51c-18.11,13.72 -43.94,10.23 -57.65,-7.85 -13.75,-18.12 -10.26,-43.93 7.85,-57.65l87.13 -64.5zm717.77 -178.74c35.77,9.58 56.99,46.34 47.4,82.11 -9.58,35.77 -46.34,56.99 -82.11,47.4 -26.19,-7.02 -44.58,-28.61 -48.79,-53.71l46.58 -9.53c7.86,-1.61 8.15,-8.37 0.65,-15.03l-32.84 -29.12c16.19,-19.64 42.91,-29.14 69.11,-22.12zm-465.45 0c35.77,9.58 56.99,46.34 47.41,82.11 -9.58,35.77 -46.34,56.99 -82.11,47.4 -26.19,-7.02 -44.58,-28.61 -48.78,-53.71l46.57 -9.53c7.87,-1.61 8.16,-8.37 0.65,-15.03l-32.84 -29.12c16.19,-19.64 42.92,-29.14 69.11,-22.12zm-16.89 -172.38c-130.98,0 -237.13,106.16 -237.13,237.14 0,130.94 106.15,237.14 237.13,237.14 115.36,0 211.43,-82.37 232.72,-191.47 21.29,109.1 117.37,191.47 232.71,191.47 130.99,0 237.14,-106.19 237.14,-237.14 0,-130.97 -106.15,-237.14 -237.14,-237.14 -115.35,0 -211.42,82.35 -232.71,191.46 -21.29,-109.11 -117.37,-191.46 -232.72,-191.46zm0 45.59c105.81,0 191.55,85.75 191.55,191.55 0,105.78 -85.74,191.55 -191.55,191.55 -105.82,0 -191.55,-85.77 -191.55,-191.55 0,-105.8 85.73,-191.55 191.55,-191.55zm465.44 0c105.81,0 191.55,85.75 191.55,191.55 0,105.78 -85.74,191.55 -191.55,191.55 -105.82,0 -191.55,-85.77 -191.55,-191.55 0,-105.8 85.73,-191.55 191.55,-191.55z"/>
    <path class="fil2" d="M1029.33 1183.83l-103 468.95 -103.25 -470.05c52.15,-34.42 89.89,-88.87 102.29,-152.39 12.53,64.2 50.95,119.14 103.96,153.49zm327.75 -474.01c-95.59,-53.15 -158.23,-64.78 -277.75,-34.57 96.44,-107.41 241.84,-168.84 368.79,-107.45 130.99,63.35 39.35,214.52 -91.04,142.01zm40.99 -241.56c-152.45,1.46 -234.27,29.36 -349.57,143.47 28.36,-188.52 149.41,-356.01 344.7,-368.63 201.52,-13.02 212.83,223.18 4.87,225.16zm-299.37 -194.26c94.91,6.93 129.34,-45.68 103.47,-76.24 -25.33,-29.92 -95.42,-12.56 -103.47,76.24zm21.86 -171.71c-64.05,24.09 -93.52,48.46 -121.46,114.36 -22.24,-83.91 -1.56,-173.21 78.55,-208.61 82.66,-36.52 130.29,61.39 42.91,94.24zm-178.07 256.59c40.5,46.86 52.49,79.3 42.53,145.15 60.08,-59.37 87.67,-141.33 39.66,-204.25 -49.55,-64.92 -137.43,-4.82 -82.18,59.1zm-450.65 348.91c117.97,-65.45 195.24,-79.73 342.62,-42.33 -118.82,-132.58 -298.08,-208.51 -454.73,-132.93 -161.65,77.99 -48.82,264.54 112.11,175.26zm80.13 -278.62c-22.24,-110.86 -104.6,-132.73 -137.17,-92.97 -31.89,38.93 14.82,113.31 137.17,92.97z"/>
    <path class="fil3" d="M896.76 259.03c-41,159.34 -29.69,252.47 78.13,404.7 -223.63,-82.48 -395.41,-255.69 -356.1,-462.82 40.57,-213.74 333.9,-159.24 277.97,58.12z"/>
   </g>
   <g>
    <g>
     <path class="fil4" d="M1121.71 2058.28c-57.21,0 -103.6,-46.37 -103.6,-103.6 0,-57.22 46.39,-103.6 103.6,-103.6 57.22,0 103.6,46.38 103.6,103.6 0,57.22 -46.38,103.6 -103.6,103.6z"/>
     <path class="fil5" d="M1121.71 2045.12c-49.95,0 -90.44,-40.49 -90.44,-90.44 0,-49.95 40.49,-90.44 90.44,-90.44 49.95,0 90.44,40.49 90.44,90.44 0,49.95 -40.49,90.44 -90.44,90.44z"/>
     <path class="fil4" d="M1114.94 1885.33l13.53 0c5.71,0 10.35,4.65 10.35,10.36l0 71.06c0,5.71 -4.64,10.36 -10.35,10.36l-13.53 0c-5.72,0 -10.36,-4.64 -10.36,-10.36l0 -71.06c0,-5.72 4.63,-10.36 10.36,-10.36z"/>
    </g>
    <path class="fil6" d="M1669.94 2080.34l-106.78 -2.54c-15.56,-0.37 -22.18,-17.99 -10.54,-29.4l233.98 -229.12c8.03,-7.85 18.11,-7.46 25.65,0.07 18.95,18.96 9.3,74.22 -17.59,101.93l-88.32 84.18c82.19,16.84 144.01,89.58 144.01,176.74 0,99.77 -74.2,180.43 -173.7,180.43l-60.15 0c-100.12,0 -182.06,-82.95 -182.06,-183.09 0,-88.8 0,-153.89 0,-242.69 0,-34.96 18.91,-94.08 61.92,-94.08 8.13,0 14.72,6.59 14.72,14.71 0,115.25 0,206.81 0,322.05 0,64.09 52.43,104.53 116.52,104.53l42.32 0c63.74,0 101.87,-45.6 101.87,-101.87 0,-48.25 -33.54,-88.66 -78.58,-99.19 -7.51,-1.58 -15.29,-2.48 -23.28,-2.68zm-281.24 91.02c-0.32,107.34 -40.92,221.77 -110.15,275.26 -27.66,21.36 -59.06,26.49 -87.48,12.46 -7.27,-3.59 -9.63,-13.2 -5.38,-20.11 93.71,-75.92 126.41,-165.24 126.23,-282.82 0,-34.95 18.91,-94.08 61.91,-94.08 8.13,0 14.72,6.61 14.73,14.72l0.15 94.57zm-544.01 101.04l-75.34 138.1c-17.48,30.28 -63.42,72.02 -100.67,50.52 -7.03,-4.06 -9.43,-13.07 -5.38,-20.11l45.87 -79.59c-7.22,0.87 -14.55,1.32 -22,1.32 -100.83,0 -182.57,-81.74 -182.57,-182.57 0,-100.83 81.74,-182.57 182.57,-182.57 100.84,0 182.57,81.74 182.57,182.57 0,32.61 -9.52,63.87 -25.06,92.34zm-157.52 -196.36c57.45,0 104.02,46.57 104.02,104.02 0,57.44 -46.57,104.01 -104.02,104.01 -57.44,0 -104.02,-46.57 -104.02,-104.01 0,-57.44 46.58,-104.02 104.02,-104.02zm-686.98 114.07c0,95.28 77.25,172.52 172.52,172.52 95.24,0 172.76,-77.25 172.71,-172.52l-0.18 -332.62c0,-8.11 -6.59,-14.71 -14.73,-14.71 -43,0 -61.91,59.11 -61.91,94.07l0.18 253.26c0.03,52.77 -43.92,93.96 -96.07,93.96 -52.47,0 -95.88,-41.49 -95.88,-93.96l-0.18 -113.32c-0.02,-8.11 -6.6,-14.72 -14.72,-14.72 -43.01,0 -61.92,59.12 -61.92,94.08l0.18 33.97zm1256.44 0c0,95.28 -77.23,172.52 -172.51,172.52 -95.28,0 -172.52,-77.25 -172.52,-172.52l-0.19 -253.26c0,-34.96 18.92,-94.08 61.92,-94.08 8.12,0 14.72,6.62 14.72,14.72l0.19 332.61c0,52.48 43.41,93.96 95.88,93.96 52.48,0 95.88,-41.49 95.88,-93.96l-0.18 -33.97c0,-34.95 18.91,-94.08 61.92,-94.08 8.12,0 14.7,6.61 14.72,14.72l0.18 113.32zm-790.48 78.44c0,34.96 -18.91,94.08 -61.91,94.08 -8.13,0 -14.72,-6.61 -14.72,-14.72 -0.06,-151.5 -0.1,-259.59 -0.19,-411.06 0,-34.96 18.92,-94.07 61.91,-94.07 8.14,0 14.73,6.61 14.73,14.71 0.07,151.5 0.09,259.58 0.18,411.06z"/>
   </g>
  </g>
 </g>
</svg>
