<?xml version="1.0" encoding="UTF-8"?>
<!DOCTYPE svg PUBLIC "-//W3C//DTD SVG 1.1//EN" "http://www.w3.org/Graphics/SVG/1.1/DTD/svg11.dtd">
<!-- Creator: CorelDRAW 2019 (64-Bit) -->
<svg xmlns="http://www.w3.org/2000/svg" xml:space="preserve" width="4.46726in" height="1.49998in" version="1.1" style="shape-rendering:geometricPrecision; text-rendering:geometricPrecision; image-rendering:optimizeQuality; fill-rule:evenodd; clip-rule:evenodd" viewBox="0 0 1664.76 558.98" xmlns:xlink="http://www.w3.org/1999/xlink">
 <defs>
  <style type="text/css">
   <![CDATA[
    .fil4 {fill:#231F20}
    .fil2 {fill:#231F20}
    .fil6 {fill:#35B994}
    .fil5 {fill:#FF6060}
    .fil3 {fill:white}
    .fil1 {fill:#FF6060;fill-rule:nonzero}
    .fil0 {fill:white;fill-rule:nonzero}
   ]]>
  </style>
 </defs>
 <g id="Layer_x0020_1">
  <metadata id="CorelCorpID_0Corel-Layer"/>
  <g id="_1723864057632">
   <g>
    <path class="fil0" d="M705.05 208.44c-37.48,0 -67.87,-30.38 -67.87,-67.87 0,-37.48 30.39,-67.87 67.87,-67.87 37.49,0 67.87,30.39 67.87,67.87 0,37.49 -30.38,67.87 -67.87,67.87z"/>
    <path class="fil1" d="M705.05 199.82c-32.72,0 -59.24,-26.52 -59.24,-59.24 0,-32.72 26.52,-59.25 59.24,-59.25 32.72,0 59.25,26.52 59.25,59.25 0,32.72 -26.52,59.24 -59.25,59.24z"/>
    <path class="fil0" d="M700.63 95.14l8.86 0c3.74,0 6.79,3.04 6.79,6.79l0 46.55c0,3.74 -3.04,6.79 -6.79,6.79l-8.86 0c-3.75,0 -6.79,-3.04 -6.79,-6.79l0 -46.55c0,-3.75 3.04,-6.79 6.79,-6.79z"/>
   </g>
   <path class="fil2" d="M1045.1 244.33l-66.83 -1.59c-9.73,-0.23 -13.88,-11.26 -6.59,-18.4l146.43 -143.39c5.02,-4.91 11.34,-4.67 16.06,0.05 11.86,11.86 5.82,46.45 -11.01,63.79l-55.27 52.68c51.44,10.54 90.12,56.06 90.12,110.61 0,62.44 -46.43,112.91 -108.7,112.91l-37.64 0c-62.66,0 -113.94,-51.91 -113.94,-114.58 0,-55.57 0,-96.31 0,-151.88 0,-21.88 11.83,-58.88 38.75,-58.88 5.09,0 9.21,4.13 9.21,9.21 0,72.13 0,129.42 0,201.55 0,40.11 32.81,65.42 72.92,65.42l26.49 0c39.89,0 63.75,-28.54 63.75,-63.75 0,-30.19 -21,-55.48 -49.18,-62.08 -4.7,-0.99 -9.57,-1.56 -14.57,-1.67zm-223.95 67.24l-0.12 -19.8c0,-21.88 11.84,-58.88 38.75,-58.88 5.09,0 9.2,4.14 9.21,9.21l0.11 64.32c0.05,25.71 -5.51,49.61 -24.37,82.09l-36.25 62.43c-10.94,18.94 -39.7,45.07 -63,31.62 -4.4,-2.54 -6.03,-8.27 -3.37,-12.59l62.1 -101c10.74,-17.47 17.04,-36.87 16.92,-57.41zm-292.52 52.96l-47.15 86.43c-10.94,18.94 -39.7,45.07 -63,31.62 -4.4,-2.55 -5.9,-8.19 -3.37,-12.59l28.71 -49.81c-4.51,0.54 -9.11,0.83 -13.76,0.83 -63.11,0 -114.26,-51.16 -114.26,-114.26 0,-63.1 51.15,-114.26 114.26,-114.26 63.11,0 114.26,51.15 114.26,114.26 0,20.41 -5.96,39.97 -15.68,57.79zm-98.58 -122.89c35.95,0 65.1,29.15 65.1,65.1 0,35.95 -29.15,65.1 -65.1,65.1 -35.95,0 -65.1,-29.15 -65.1,-65.1 0,-35.95 29.15,-65.1 65.1,-65.1zm-429.93 71.39c0,59.63 48.35,107.97 107.97,107.97 59.61,0 108.11,-48.34 108.09,-107.97l-0.12 -220.5c-0,-5.08 -4.13,-9.21 -9.21,-9.21 -26.91,0 -38.75,37 -38.75,58.88l0.12 170.83c0.02,33.03 -27.48,58.81 -60.12,58.81 -32.84,0 -60.01,-25.97 -60.01,-58.81l-0.12 -70.92c-0.01,-5.08 -4.13,-9.21 -9.21,-9.21 -26.92,0 -38.75,37 -38.75,58.88l0.11 21.25zm786.32 0c0,59.63 -48.34,107.97 -107.97,107.97 -59.63,0 -107.97,-48.34 -107.97,-107.97l-0.12 -170.83c0,-21.88 11.84,-58.88 38.75,-58.88 5.09,0 9.21,4.14 9.21,9.21l0.12 220.5c0,32.84 27.17,58.81 60.01,58.81 32.84,0 60.01,-25.97 60.01,-58.81l-0.12 -21.25c0,-21.88 11.84,-58.88 38.75,-58.88 5.09,0 9.2,4.13 9.21,9.21l0.12 70.92zm-494.71 49.09c0,21.88 -11.83,58.88 -38.75,58.88 -5.09,0 -9.21,-4.14 -9.21,-9.21 -0.04,-94.82 -0.06,-174.79 -0.12,-269.59 0,-21.88 11.84,-58.88 38.75,-58.88 5.09,0 9.21,4.14 9.22,9.21 0.04,94.82 0.06,174.79 0.11,269.59z"/>
  </g>
  <g id="_1723864070560">
   <circle class="fil3" cx="1374.04" cy="333.3" r="70.5"/>
   <circle class="fil3" cx="1532.29" cy="333.3" r="70.5"/>
   <path class="fil4" d="M1295.43 371.58c4.11,8.33 9.51,15.92 15.94,22.49l-28.57 21.48c-6.13,4.64 -14.86,3.46 -19.5,-2.66 -4.65,-6.13 -3.47,-14.86 2.66,-19.5l29.47 -21.82zm242.76 -60.45c12.1,3.24 19.27,15.67 16.03,27.77 -3.24,12.1 -15.67,19.27 -27.77,16.03 -8.86,-2.37 -15.08,-9.68 -16.5,-18.16l15.75 -3.22c2.66,-0.54 2.76,-2.83 0.22,-5.08l-11.11 -9.85c5.48,-6.64 14.51,-9.86 23.37,-7.48zm-157.42 0c12.1,3.24 19.27,15.67 16.03,27.77 -3.24,12.1 -15.67,19.27 -27.77,16.03 -8.86,-2.37 -15.08,-9.68 -16.5,-18.16l15.75 -3.22c2.66,-0.54 2.76,-2.83 0.22,-5.08l-11.11 -9.85c5.48,-6.64 14.52,-9.86 23.37,-7.48zm-5.71 -58.3c-44.3,0 -80.2,35.9 -80.2,80.2 0,44.29 35.9,80.2 80.2,80.2 39.01,0 71.51,-27.86 78.71,-64.76 7.2,36.9 39.69,64.76 78.71,64.76 44.3,0 80.2,-35.91 80.2,-80.2 0,-44.3 -35.9,-80.2 -80.2,-80.2 -39.01,0 -71.51,27.85 -78.71,64.75 -7.2,-36.9 -39.7,-64.75 -78.71,-64.75zm0 15.42c35.79,0 64.78,29 64.78,64.78 0,35.78 -29,64.79 -64.78,64.79 -35.79,0 -64.78,-29.01 -64.78,-64.79 0,-35.78 29,-64.78 64.78,-64.78zm157.42 0c35.79,0 64.78,29 64.78,64.78 0,35.78 -29,64.79 -64.78,64.79 -35.79,0 -64.78,-29.01 -64.78,-64.79 0,-35.78 29,-64.78 64.78,-64.78z"/>
   <path class="fil5" d="M1488.92 400.38l-34.84 158.6 -34.92 -158.98c17.64,-11.64 30.4,-30.06 34.59,-51.54 4.24,21.71 17.23,40.3 35.16,51.91zm110.85 -160.32c-32.33,-17.98 -53.51,-21.91 -93.94,-11.69 32.62,-36.32 81.79,-57.1 124.73,-36.34 44.3,21.42 13.31,72.55 -30.79,48.03zm13.86 -81.7c-51.56,0.49 -79.23,9.93 -118.23,48.52 9.59,-63.76 50.53,-120.41 116.58,-124.67 68.16,-4.4 71.98,75.48 1.65,76.15zm-101.25 -65.7c32.1,2.34 43.75,-15.45 34.99,-25.79 -8.57,-10.12 -32.27,-4.25 -34.99,25.79zm7.39 -58.07c-21.66,8.15 -31.63,16.39 -41.08,38.68 -7.52,-28.38 -0.53,-58.58 26.57,-70.55 27.96,-12.35 44.06,20.76 14.51,31.88zm-60.22 86.78c13.7,15.85 17.75,26.82 14.38,49.09 20.32,-20.08 29.65,-47.8 13.41,-69.08 -16.76,-21.96 -46.48,-1.63 -27.8,19.99zm-152.41 118.01c39.9,-22.14 66.03,-26.96 115.88,-14.32 -40.19,-44.84 -100.81,-70.52 -153.79,-44.96 -54.67,26.38 -16.51,89.47 37.92,59.27zm27.1 -94.23c-7.52,-37.49 -35.37,-44.89 -46.39,-31.44 -10.79,13.16 5.01,38.32 46.39,31.44z"/>
   <path class="fil6" d="M1444.09 87.6c-13.87,53.89 -10.04,85.39 26.42,136.87 -75.63,-27.9 -133.73,-86.48 -120.44,-156.53 13.72,-72.29 112.93,-53.85 94.01,19.66z"/>
  </g>
 </g>
</svg>